<?xml version="1.0" encoding="UTF-8"?>
<svg width="24px" height="28px" viewBox="0 0 24 28" version="1.1" xmlns="http://www.w3.org/2000/svg" xmlns:xlink="http://www.w3.org/1999/xlink">
    <title>logo1</title>
    <defs>
        <linearGradient x1="100%" y1="50%" x2="0%" y2="50%" id="linearGradient-1">
            <stop stop-color="#1465FF" offset="0%"></stop>
            <stop stop-color="#2D9EFF" offset="100%"></stop>
        </linearGradient>
        <linearGradient x1="99.8716128%" y1="50%" x2="-7.10542736e-13%" y2="50%" id="linearGradient-2">
            <stop stop-color="#F8B200" offset="0%"></stop>
            <stop stop-color="#FFDD1E" offset="100%"></stop>
        </linearGradient>
    </defs>
    <g id="logo" stroke="none" stroke-width="1" fill="none" fill-rule="evenodd">
        <g id="编组-21备份-4" transform="translate(-201.000000, -16.000000)">
            <g id="logo1" transform="translate(197.000000, 14.000000)">
                <path d="M11.7684912,2.90461047 L13.5532273,4.1539258 C15.0223266,5.18229532 16.9776734,5.18229532 18.4467727,4.1539258 L20.2315088,2.90461047 C20.9486653,2.40260098 21.8028805,2.13333333 22.6782815,2.13333333 L24.5333803,2.13333333 C26.3007174,2.13333333 27.7334272,3.56604315 27.7334272,5.33338028 L27.7334272,10.6106777 L27.7334272,10.6106777 C26.0299832,12.5922384 23.8331845,14.1374521 21.3335994,15.0557503 L21.3333333,8.62986667 L18.4031097,10.6274001 C16.953418,11.615655 15.0465377,11.6157201 13.5967784,10.6275642 L10.6666667,8.6304 L10.6666667,8.6304 L10.6669018,15.0559344 C8.16710922,14.1376586 5.97013064,12.5923708 4.26657277,10.6106777 L4.26657277,5.33338028 C4.26657277,3.56604315 5.69928259,2.13333333 7.46661972,2.13333333 L9.32171848,2.13333333 C10.1971195,2.13333333 11.0513347,2.40260098 11.7684912,2.90461047 Z" id="路径" fill="url(#linearGradient-1)"></path>
                <path d="M27.7338183,15.0517808 L27.7333333,18.1333333 C27.7333333,24.6134744 22.4801411,29.8666667 16,29.8666667 C9.51985894,29.8666667 4.26665453,24.6134744 4.26665453,18.1333333 L4.26665453,15.0521634 C6.13814089,16.5664863 8.30828192,17.7262973 10.674928,18.4294468 C10.8283129,21.23715 13.1537907,23.4666667 16,23.4666667 C18.8462093,23.4666667 21.1716871,21.23715 21.3252606,18.4292893 C23.6919003,17.7262473 25.8622173,16.5662969 27.7338183,15.0517808 Z" id="路径" fill="url(#linearGradient-2)"></path>
            </g>
        </g>
    </g>
</svg>